<svg xmlns="http://www.w3.org/2000/svg" viewBox="0 0 400 400" width="400" height="400">
  <defs>
    <radialGradient id="bg" cx="50%" cy="40%" r="75%">
      <stop offset="0%" stop-color="#14121e"/><stop offset="55%" stop-color="#0b0a14"/><stop offset="100%" stop-color="#040308"/>
    </radialGradient>
    <linearGradient id="em" x1="0" y1="0" x2="1" y2="1">
      <stop offset="0%" stop-color="#a98bff"/><stop offset="55%" stop-color="#7c4dff"/><stop offset="100%" stop-color="#22d3ee"/>
    </linearGradient>
    <filter id="glow" x="-70%" y="-70%" width="240%" height="240%"><feGaussianBlur stdDeviation="5" result="b"/><feMerge><feMergeNode in="b"/><feMergeNode in="SourceGraphic"/></feMerge></filter>
    <filter id="soft" x="-90%" y="-90%" width="280%" height="280%"><feGaussianBlur stdDeviation="20"/></filter>
  </defs>

  <rect width="400" height="400" fill="url(#bg)"/>
  <ellipse cx="200" cy="196" rx="118" ry="120" fill="#7c4dff" opacity="0.22" filter="url(#soft)"/>
  <circle cx="200" cy="200" r="182" fill="none" stroke="#7c4dff" stroke-width="2" opacity="0.16"/>

  <g transform="translate(200,200) scale(8.5) translate(-16,-15.5)" filter="url(#glow)">
    <circle cx="16" cy="4.4" r="1.7" fill="url(#em)"/>
    <line x1="16" y1="6" x2="16" y2="8.7" stroke="url(#em)" stroke-width="1.9" stroke-linecap="round"/>
    <path d="M16 8.7 L24.7 13.35 L24.7 22 L16 26.7 L7.3 22 L7.3 13.35 Z" fill="none" stroke="url(#em)" stroke-width="2" stroke-linejoin="round"/>
    <circle cx="12.6" cy="17.2" r="1.7" fill="url(#em)"/>
    <circle cx="19.4" cy="17.2" r="1.7" fill="url(#em)"/>
    <line x1="13" y1="21.6" x2="19" y2="21.6" stroke="url(#em)" stroke-width="1.7" stroke-linecap="round"/>
  </g>
</svg>
